Coordinates
version=1
nRows=7
nColumns=46
inDegrees=yes

Units are S.I. units (second, meters, Newtons, ...)
Angles are in degrees.

endheader
time	pelvis_tilt	pelvis_list	pelvis_rotation	pelvis_tx	pelvis_ty	pelvis_tz	bb_angle	bb_tx	bb_ty	bb_tz	hip_flexion_r	hip_adduction_r	hip_rotation_r	knee_angle_r	knee_angle_r_beta	ankle_angle_r	subtalar_angle_r	mtp_angle_r	crank_angle_r	hip_flexion_l	hip_adduction_l	hip_rotation_l	knee_angle_l	knee_angle_l_beta	ankle_angle_l	subtalar_angle_l	mtp_angle_l	crank_angle_l	lumbar_extension	lumbar_bending	lumbar_rotation	arm_flex_r	arm_add_r	arm_rot_r	elbow_flex_r	pro_sup_r	wrist_flex_r	wrist_dev_r	arm_flex_l	arm_add_l	arm_rot_l	elbow_flex_l	pro_sup_l	wrist_flex_l	wrist_dev_l
      5.00500000	     21.90455961	     13.77968232	     21.33089378	      0.27935381	      1.13583505	     -0.24714214	      0.00000000	      0.50000000	      0.00000000	      0.25000000	    -18.12538096	    -19.59644431	    -39.77050335	     43.97363383	      0.76748469	    -27.29195582	      5.86739650	      0.00000000	      0.00000000	     47.52485356	     12.55661191	      9.73777870	    117.16845030	      2.04497524	      1.64370683	      6.66881442	      0.00000000	      0.00000000	    -89.88936700	     14.24191770	    -14.80352345	     86.61814497	     -7.36742357	     82.16904559	     16.80828213	     52.50675649	      0.00000000	      0.00000000	     88.43218003	    -22.00285331	     72.31735814	     42.60047114	     48.01717432	      0.00000000	      0.00000000
      5.01000000	     21.93504242	     14.47127574	     21.78604385	      0.27767777	      1.13426510	     -0.24772115	      0.00000000	      0.50000000	      0.00000000	      0.25000000	    -18.05150866	    -20.53381460	    -39.76404259	     46.82238522	      0.81720479	    -25.51221887	      4.61804411	      0.00000000	      0.00000000	     47.13167315	     14.07023881	      9.66425428	    116.27677490	      2.02941257	      3.44180607	      6.66175529	      0.00000000	      0.00000000	    -89.89149608	     14.44824669	    -15.36469150	     86.59621596	     -7.50944117	     82.26501771	     16.72814946	     52.71455944	      0.00000000	      0.00000000	     88.42185665	    -21.81523280	     72.10379118	     42.70988003	     47.99475376	      0.00000000	      0.00000000
      5.01500000	     22.02416460	     15.05781433	     22.32384701	      0.27594992	      1.13267491	     -0.24842602	      0.00000000	      0.50000000	      0.00000000	      0.25000000	    -17.98653254	    -21.24696861	    -39.74474989	     49.63782516	      0.86634348	    -23.73132144	      3.12197375	      0.00000000	      0.00000000	     46.42495562	     15.52475694	      9.81218806	    115.22828880	      2.01111303	      5.45472258	      6.42770116	      0.00000000	      0.00000000	    -89.89604313	     14.77082886	    -15.82415455	     86.58278184	     -7.60878530	     82.33134090	     16.63415861	     52.84901795	      0.00000000	      0.00000000	     88.39201351	    -21.68328089	     71.96732127	     42.79308888	     47.98246511	      0.00000000	      0.00000000
      5.02000000	     22.01880334	     16.06171054	     22.74544026	      0.27411534	      1.13104880	     -0.24918392	      0.00000000	      0.50000000	      0.00000000	      0.25000000	    -17.88635998	    -22.64218486	    -39.73608599	     52.79809814	      0.92150065	    -22.06525443	      1.88075227	      0.00000000	      0.00000000	     45.46350434	     17.29843682	      9.62748886	    113.86918347	      1.98739217	      7.44732060	      6.07614663	      0.00000000	      0.00000000	    -89.89689486	     14.93464475	    -16.92142346	     86.60746432	     -7.56109848	     82.50437706	     16.55631122	     53.19957717	      0.00000000	      0.00000000	     88.37195430	    -21.77674693	     71.58141424	     43.04797653	     47.95753008	      0.00000000	      0.00000000
      5.02500000	     22.22876087	     16.39809911	     23.46385504	      0.27228761	      1.12925524	     -0.25017634	      0.00000000	      0.50000000	      0.00000000	      0.25000000	    -17.80215102	    -22.99795213	    -39.72242639	     55.62493894	      0.97083833	    -20.78786169	      0.37559950	      0.00000000	      0.00000000	     44.32041584	     18.63636841	     10.34330769	    112.56578837	      1.96464363	      9.45048020	      5.55188104	      0.00000000	      0.00000000	    -89.90239579	     15.54313944	    -17.08624206	     86.46667702	     -7.62651363	     82.55023393	     16.46448889	     53.27315746	      0.00000000	      0.00000000	     88.23564918	    -21.69357002	     71.56212551	     43.15262197	     47.96891825	      0.00000000	      0.00000000
      5.03000000	     22.15213810	     17.66698295	     23.73631765	      0.27062228	      1.12764279	     -0.25078912	      0.00000000	      0.50000000	      0.00000000	      0.25000000	    -17.63192134	    -24.86429038	    -39.68489076	     58.97902024	      1.02937809	    -19.37676077	     -0.80637872	      0.00000000	      0.00000000	     42.99328834	     20.44163039	      9.98732232	    110.73658154	      1.93271795	     11.35234740	      4.85168642	      0.00000000	      0.00000000	    -89.90361231	     15.52742068	    -18.69858907	     86.64583920	     -7.24416073	     82.79615531	     15.86465915	     54.03000677	      0.00000000	      0.00000000	     88.16142616	    -22.38480968	     70.89872566	     44.08955794	     48.01313163	      0.00000000	      0.00000000
      5.03500000	     22.30094532	     18.40616191	     24.21973017	      0.26905454	      1.12596221	     -0.25166144	      0.00000000	      0.50000000	      0.00000000	      0.25000000	    -17.56384670	    -25.91997666	    -39.64398955	     62.00493430	      1.08219026	    -18.01941851	     -1.90563921	      0.00000000	      0.00000000	     41.45797139	     21.93112612	     10.40546057	    109.00244095	      1.90245149	     13.08913089	      4.14922885	      0.00000000	      0.00000000	    -89.90727877	     15.82891857	    -19.54166626	     86.54088346	     -7.05239896	     82.90486020	     15.60629558	     54.59459748	      0.00000000	      0.00000000	     88.01806704	    -22.60630509	     70.67428271	     44.47720905	     48.03524833	      0.00000000	      0.00000000
